<svg width="244" height="66" viewBox="0 0 244 66" fill="none" xmlns="http://www.w3.org/2000/svg">
<path d="M119.258 0.919999V6.4H111.818V29H104.978V6.4H97.5381V0.919999H119.258ZM154.491 0.919999V29H147.651V12.16L141.371 29H135.851L129.531 12.12V29H122.691V0.919999H130.771L138.651 20.36L146.451 0.919999H154.491ZM191.21 0.919999V29H184.37V12.16L178.09 29H172.57L166.25 12.12V29H159.41V0.919999H167.49L175.37 20.36L183.17 0.919999H191.21ZM202.968 0.919999V29H196.128V0.919999H202.968ZM233.045 29H226.205L214.765 11.68V29H207.925V0.919999H214.765L226.205 18.32V0.919999H233.045V29ZM0.78875 50.92C0.78875 48.1467 1.38875 45.68 2.58875 43.52C3.78875 41.3333 5.45542 39.64 7.58875 38.44C9.74875 37.2133 12.1888 36.6 14.9088 36.6C18.2421 36.6 21.0954 37.48 23.4688 39.24C25.8421 41 27.4288 43.4 28.2288 46.44H20.7088C20.1488 45.2667 19.3488 44.3733 18.3088 43.76C17.2954 43.1467 16.1354 42.84 14.8288 42.84C12.7221 42.84 11.0154 43.5733 9.70875 45.04C8.40208 46.5067 7.74875 48.4667 7.74875 50.92C7.74875 53.3733 8.40208 55.3333 9.70875 56.8C11.0154 58.2667 12.7221 59 14.8288 59C16.1354 59 17.2954 58.6933 18.3088 58.08C19.3488 57.4667 20.1488 56.5733 20.7088 55.4H28.2288C27.4288 58.44 25.8421 60.84 23.4688 62.6C21.0954 64.3333 18.2421 65.2 14.9088 65.2C12.1888 65.2 9.74875 64.6 7.58875 63.4C5.45542 62.1733 3.78875 60.48 2.58875 58.32C1.38875 56.16 0.78875 53.6933 0.78875 50.92ZM49.8975 60.04H39.4175L37.7375 65H30.5775L40.7375 36.92H48.6575L58.8175 65H51.5775L49.8975 60.04ZM48.1375 54.76L44.6575 44.48L41.2175 54.76H48.1375ZM76.2297 65L70.3897 54.4H68.7497V65H61.9097V36.92H73.3897C75.603 36.92 77.483 37.3067 79.0297 38.08C80.603 38.8533 81.7764 39.92 82.5497 41.28C83.323 42.6133 83.7097 44.1067 83.7097 45.76C83.7097 47.6267 83.1764 49.2933 82.1097 50.76C81.0697 52.2267 79.523 53.2667 77.4697 53.88L83.9497 65H76.2297ZM68.7497 49.56H72.9897C74.243 49.56 75.1764 49.2533 75.7897 48.64C76.4297 48.0267 76.7497 47.16 76.7497 46.04C76.7497 44.9733 76.4297 44.1333 75.7897 43.52C75.1764 42.9067 74.243 42.6 72.9897 42.6H68.7497V49.56ZM110.8 65L104.96 54.4H103.32V65H96.48V36.92H107.96C110.173 36.92 112.053 37.3067 113.6 38.08C115.173 38.8533 116.347 39.92 117.12 41.28C117.893 42.6133 118.28 44.1067 118.28 45.76C118.28 47.6267 117.747 49.2933 116.68 50.76C115.64 52.2267 114.093 53.2667 112.04 53.88L118.52 65H110.8ZM103.32 49.56H107.56C108.813 49.56 109.747 49.2533 110.36 48.64C111 48.0267 111.32 47.16 111.32 46.04C111.32 44.9733 111 44.1333 110.36 43.52C109.747 42.9067 108.813 42.6 107.56 42.6H103.32V49.56ZM129.414 42.4V48.08H138.574V53.36H129.414V59.52H139.774V65H122.574V36.92H139.774V42.4H129.414ZM169.334 65H162.494L151.054 47.68V65H144.214V36.92H151.054L162.494 54.32V36.92H169.334V65ZM194.493 36.92V42.4H187.053V65H180.213V42.4H172.773V36.92H194.493ZM215.405 60.04H204.925L203.245 65H196.085L206.245 36.92H214.165L224.325 65H217.085L215.405 60.04ZM213.645 54.76L210.165 44.48L206.725 54.76H213.645ZM234.258 59.72H243.218V65H227.418V36.92H234.258V59.72Z" fill="white"/>
</svg>
